<svg width="10" height="12" viewBox="0 0 10 12" fill="none" xmlns="http://www.w3.org/2000/svg">
<path d="M4.80404 5.60754e-07C4.4067 5.26605e-07 4.07209 0.319468 4.07209 0.698836L4.07209 9.64393L1.47892 7.16805C1.20705 6.88852 0.746972 6.86855 0.454195 7.12812C0.161417 7.38769 0.140504 7.82695 0.412369 8.10649C0.433282 8.12646 0.433282 8.12646 0.454194 8.14642L4.26031 11.8003C4.4067 11.9401 4.59491 12 4.78312 12L4.80404 12C5.05499 12 5.28503 11.8802 5.4105 11.6805L9.11205 8.16639C9.42574 7.92679 9.46757 7.48752 9.1957 7.18802C8.94475 6.88852 8.48467 6.84859 8.17098 7.10815C8.12916 7.12812 8.10824 7.16805 8.08733 7.18802L5.53598 9.62396L5.53598 0.718802C5.53598 0.319468 5.20138 5.94902e-07 4.80404 5.60754e-07Z" fill="#CA4A52"/>
</svg>
