<svg width="10" height="12" viewBox="0 0 10 12" fill="none" xmlns="http://www.w3.org/2000/svg">
<path d="M4.79287 12C5.19021 12 5.52482 11.6805 5.52482 11.3012V2.35607L8.11798 4.83195C8.38985 5.11148 8.84992 5.13145 9.1427 4.87188C9.43548 4.61231 9.45639 4.17305 9.18453 3.89351C9.16361 3.87354 9.16361 3.87354 9.1427 3.85358L5.3366 0.199667C5.19021 0.0599002 5.002 0 4.81379 0H4.79287C4.54192 0 4.31188 0.1198 4.18641 0.319468L0.48487 3.83361C0.17118 4.07321 0.129355 4.51248 0.401219 4.81198C0.652171 5.11148 1.11225 5.15141 1.42594 4.89185C1.46776 4.87188 1.48868 4.83195 1.50959 4.81198L4.06093 2.37604V11.2812C4.06093 11.6805 4.39553 12 4.79287 12Z" fill="#7AB995"/>
</svg>
