<svg width="24" height="27" viewBox="0 0 24 27" fill="none" xmlns="http://www.w3.org/2000/svg">
<g clip-path="url(#clip0)">
<path fill-rule="evenodd" clip-rule="evenodd" d="M0 21.9744C0 22.3732 0.161135 22.7321 0.443122 23.0113C0.725108 23.2904 1.08766 23.45 1.4905 23.45H8.13733H15.7912H22.4381C22.8409 23.45 23.2035 23.2904 23.4854 23.0113C23.7674 22.7321 23.9286 22.3732 23.9286 21.9744C23.9286 21.5756 23.7674 21.2166 23.4854 20.9375C23.2035 20.6583 22.8409 20.4988 22.4381 20.4988H1.45022C1.04738 20.4988 0.684824 20.6583 0.402838 20.9375C0.161135 21.2166 0 21.5756 0 21.9744Z" fill="#B5B5C3" fill-opacity="0.3"/>
<path fill-rule="evenodd" clip-rule="evenodd" d="M20.5449 11.2065C20.1421 8.77378 19.0947 6.54044 17.4834 4.94521C16.9194 4.38687 16.2749 3.9083 15.5498 3.54937C15.5498 2.55235 15.1469 1.67497 14.5024 1.03687C13.8578 0.398779 12.9313 -3.05176e-05 11.9645 -3.05176e-05C10.9977 -3.05176e-05 10.0712 0.398779 9.42662 1.03687C8.78208 1.67497 8.37924 2.55235 8.37924 3.54937C7.65414 3.9083 7.00959 4.38687 6.44562 4.98509C4.87455 6.58033 3.82718 8.81366 3.38405 11.2464L1.97412 19.6613H21.9146L20.5449 11.2065ZM11.4811 6.66009C10.4337 6.66009 9.54747 7.0589 8.86265 7.73687C8.09726 8.49461 7.61385 9.5714 7.41243 10.7678C7.37215 11.0071 7.13045 11.1666 6.88874 11.1268C6.64704 11.0869 6.48591 10.8476 6.52619 10.6083C6.76789 9.25235 7.33187 8.01604 8.25839 7.09878C9.10435 6.26128 10.192 5.74283 11.4811 5.74283C11.7228 5.74283 11.9242 5.94223 11.9242 6.18152C11.9242 6.46068 11.7228 6.66009 11.4811 6.66009ZM11.9645 2.67199C11.4005 2.67199 10.8366 2.71187 10.3129 2.83152C10.3934 2.63211 10.5143 2.43271 10.6754 2.27318C10.9977 1.95414 11.4408 1.75473 11.9645 1.75473C12.4882 1.75473 12.891 1.99402 13.2133 2.31306C13.3744 2.47259 13.4953 2.67199 13.5759 2.8714C13.0924 2.71187 12.5285 2.67199 11.9645 2.67199Z" fill="#B5B5C3"/>
<path fill-rule="evenodd" clip-rule="evenodd" d="M9.06396 24.3274C9.14453 24.9655 9.4668 25.5238 9.86964 25.9625C10.3933 26.4809 11.1184 26.8 11.9644 26.8C12.7701 26.8 13.4952 26.4809 14.0592 25.9625C14.5023 25.5238 14.7843 24.9655 14.8648 24.3274C14.8648 24.3274 9.06396 24.3274 9.06396 24.3274Z" fill="#B5B5C3" fill-opacity="0.3"/>
</g>
<defs>
<clipPath id="clip0">
<rect width="23.9286" height="26.8" fill="white"/>
</clipPath>
</defs>
</svg>
