<svg width="23" height="24" viewBox="0 0 23 24" fill="none" xmlns="http://www.w3.org/2000/svg">
<path d="M20.116 2.72681H19.371V4.09019C19.371 4.98492 18.6673 5.75182 17.7567 5.75182C16.8875 5.75182 16.1425 5.02752 16.1425 4.09019V2.72681H6.04308V4.09019C6.04308 4.98492 5.33943 5.75182 4.42883 5.75182C3.55962 5.75182 2.81458 5.02752 2.81458 4.09019V2.72681H2.11094C0.951991 2.72681 0 3.70674 0 4.8997V21.5586C0 22.7515 0.951991 23.7315 2.11094 23.7315H20.116C21.2749 23.7315 22.2269 22.7515 22.2269 21.5586V4.8997C22.1855 3.70674 21.2749 2.72681 20.116 2.72681ZM19.6193 20.3656C19.6193 20.7917 19.2468 21.1325 18.7915 21.1325H3.43545C2.98015 21.1325 2.60763 20.7917 2.60763 20.3656V9.54374C2.60763 9.11768 2.98015 8.77683 3.43545 8.77683H18.7915C19.2468 8.77683 19.6193 9.11768 19.6193 9.54374V20.3656Z" fill="#B5B5C3"/>
<path d="M4.42962 4.89967C4.84354 4.89967 5.21606 4.55883 5.21606 4.09016V2.72677V0.809511C5.21606 0.383453 4.88493 0 4.42962 0C3.97431 0 3.68457 0.340847 3.68457 0.809511V2.76938V4.13277C3.68457 4.51622 4.0157 4.89967 4.42962 4.89967Z" fill="#B5B5C3"/>
<path d="M17.7567 4.89967C18.1707 4.89967 18.5432 4.55883 18.5432 4.09016V2.72677V0.809511C18.5432 0.383453 18.2121 0 17.7567 0C17.3428 0 16.9702 0.340847 16.9702 0.809511V2.76938V4.13277C17.0116 4.51622 17.3428 4.89967 17.7567 4.89967Z" fill="#B5B5C3"/>
<path d="M8.11304 10.0975H4.05664V14.3581H8.11304V10.0975Z" fill="#B5B5C3" fill-opacity="0.8"/>
<path d="M13.2028 10.0975H9.14648V14.3581H13.2028V10.0975Z" fill="#B5B5C3" fill-opacity="0.8"/>
<path d="M8.11304 15.3807H4.05664V19.6413H8.11304V15.3807Z" fill="#B5B5C3" fill-opacity="0.8"/>
<path d="M13.2028 15.3807H9.14648V19.6413H13.2028V15.3807Z" fill="#B5B5C3" fill-opacity="0.8"/>
<path d="M18.5427 10.0975H14.4863V14.3581H18.5427V10.0975Z" fill="#B5B5C3" fill-opacity="0.8"/>
<path d="M18.5427 15.3807H14.4863V19.6413H18.5427V15.3807Z" fill="#B5B5C3" fill-opacity="0.8"/>
</svg>
