<svg width="36" height="35" viewBox="0 0 36 35" fill="none" xmlns="http://www.w3.org/2000/svg">
<g clip-path="url(#clip0)">
<path d="M8.93052 8.45766H26.2362V0H0.327148V22.651H8.93052V8.45766Z" fill="#B3B3B3"/>
<path d="M23.3683 15.4571L26.2361 16.4293V11.2769H20.5005V16.4293L23.3683 15.4571Z" fill="#303C4B"/>
<path d="M22.1817 28.5811C22.1817 24.5953 25.4451 21.4844 29.4006 21.4844C31.5762 21.4844 33.554 22.4565 34.8396 23.9148V11.2769H29.104V20.415L23.3684 18.4708L17.6328 20.415V11.3741H11.8972V34.0251H24.7528C23.1706 32.6641 22.1817 30.7198 22.1817 28.5811Z" fill="#303C4B"/>
<path d="M29.4996 22.4565C25.9396 22.4565 23.1707 25.2758 23.1707 28.6783C23.1707 32.0808 26.0384 34.9 29.4996 34.9C32.9607 34.9 35.8285 32.0808 35.8285 28.6783C35.8285 25.2758 33.0596 22.4565 29.4996 22.4565ZM32.4663 27.7061L29.3018 30.817C29.0051 31.1086 28.5107 31.1086 28.214 30.817L26.6318 29.2616C26.3351 28.9699 26.3351 28.4838 26.6318 28.1922C26.9284 27.9006 27.4229 27.9006 27.7196 28.1922L28.7085 29.1643L31.2796 26.5395C31.5762 26.2479 32.0707 26.2479 32.3674 26.5395C32.7629 26.9284 32.7629 27.4145 32.4663 27.7061Z" fill="#303C4B"/>
</g>
<defs>
<clipPath id="clip0">
<rect width="35.5013" height="34.9" fill="white" transform="translate(0.327148)"/>
</clipPath>
</defs>
</svg>
