<svg width="22" height="14" viewBox="0 0 22 14" fill="none" xmlns="http://www.w3.org/2000/svg">
<g opacity="0.8">
<path fill-rule="evenodd" clip-rule="evenodd" d="M22 7C22 7 18 14 11 14C4 14 0 7 0 7C0 7 4 0 11 0C18 0 22 7 22 7Z" fill="#303C4B"/>
<path fill-rule="evenodd" clip-rule="evenodd" d="M11 3C8.8 3 7 4.8 7 7C7 9.2 8.8 11 11 11C13.2 11 15 9.2 15 7C15 4.8 13.2 3 11 3Z" fill="#B3B3B3"/>
<path fill-rule="evenodd" clip-rule="evenodd" d="M11 5.5C10.2 5.5 9.5 6.2 9.5 7C9.5 7.8 10.2 8.5 11 8.5C11.8 8.5 12.5 7.8 12.5 7C12.5 6.2 11.8 5.5 11 5.5Z" fill="#303C4B"/>
</g>
</svg>
