<svg width="25" height="27" viewBox="0 0 25 27" fill="none" xmlns="http://www.w3.org/2000/svg">
<g clip-path="url(#clip0)">
<path d="M13.8686 13.1636C13.8686 12.6078 13.4207 12.1599 12.865 12.1599H1.00365C0.44791 12.1682 0 12.6161 0 13.1636C0 13.7193 0.44791 14.1672 1.00365 14.1672H12.865C13.4207 14.1672 13.8686 13.7193 13.8686 13.1636Z" fill="#AAACAE"/>
<path d="M25.0001 13.1636C25.0001 12.6078 24.5522 12.1599 23.9965 12.1599H18.9617C18.4059 12.1599 17.958 12.6078 17.958 13.1636C17.958 13.7193 18.4059 14.1672 18.9617 14.1672H23.9965C24.5522 14.1672 25.0001 13.7193 25.0001 13.1636Z" fill="#AAACAE"/>
<path d="M7.03384 22.2959C7.03384 21.7402 6.58593 21.2923 6.03019 21.2923H1.00365C0.44791 21.3006 0 21.7485 0 22.2959C0 22.8517 0.44791 23.2996 1.00365 23.2996H6.03849C6.58593 23.2996 7.03384 22.8517 7.03384 22.2959Z" fill="#AAACAE"/>
<path d="M25 22.2959C25 21.7402 24.552 21.2923 23.9963 21.2923H12.135C11.5793 21.2923 11.1313 21.7402 11.1313 22.2959C11.1313 22.8517 11.5793 23.2996 12.135 23.2996H23.9963C24.552 23.2996 25 22.8517 25 22.2959Z" fill="#AAACAE"/>
<path d="M7.03384 4.03118C7.03384 3.47544 6.58593 3.02753 6.03019 3.02753H1.00365C0.44791 3.03582 0 3.48373 0 4.03118C0 4.57862 0.44791 5.03483 1.00365 5.03483H6.03849C6.58593 5.03483 7.03384 4.58692 7.03384 4.03118Z" fill="#AAACAE"/>
<path d="M25 4.03118C25 3.47544 24.552 3.02753 23.9963 3.02753H12.135C11.5793 3.02753 11.1313 3.47544 11.1313 4.03118C11.1313 4.58692 11.5793 5.03483 12.135 5.03483H23.9963C24.552 5.03483 25 4.58692 25 4.03118Z" fill="#AAACAE"/>
<path d="M19.9652 13.1636C19.9652 10.9406 18.157 9.13239 15.934 9.13239C13.7111 9.13239 11.9028 10.9406 11.9028 13.1636C11.9028 15.3865 13.7111 17.1948 15.934 17.1948C18.157 17.1948 19.9652 15.3865 19.9652 13.1636ZM13.9018 13.1636C13.9018 12.0438 14.8142 11.1314 15.934 11.1314C17.0538 11.1314 17.9662 12.0438 17.9662 13.1636C17.9662 14.2833 17.0538 15.1958 15.934 15.1958C14.8142 15.1958 13.9018 14.2833 13.9018 13.1636Z" fill="#2F3C4B"/>
<path d="M13.097 22.296C13.097 20.073 11.2888 18.2648 9.06586 18.2648C6.8429 18.2648 5.03467 20.073 5.03467 22.296C5.03467 24.5189 6.8429 26.3271 9.06586 26.3271C11.2888 26.3271 13.097 24.5189 13.097 22.296ZM7.03367 22.296C7.03367 21.1762 7.94608 20.2638 9.06586 20.2638C10.1856 20.2638 11.098 21.1762 11.098 22.296C11.098 23.4157 10.1856 24.3281 9.06586 24.3281C7.94608 24.3281 7.03367 23.4157 7.03367 22.296Z" fill="#2F3C4B"/>
<path d="M13.097 4.03119C13.097 1.80823 11.2888 0 9.06586 0C6.8429 0 5.03467 1.80823 5.03467 4.03119C5.03467 6.25415 6.8429 8.06238 9.06586 8.06238C11.2888 8.06238 13.097 6.25415 13.097 4.03119ZM7.03367 4.03119C7.03367 2.91141 7.94608 1.999 9.06586 1.999C10.1856 1.999 11.098 2.91141 11.098 4.03119C11.098 5.15096 10.1856 6.06337 9.06586 6.06337C7.94608 6.06337 7.03367 5.15096 7.03367 4.03119Z" fill="#2F3C4B"/>
</g>
<defs>
<clipPath id="clip0">
<rect width="25" height="26.3271" fill="white"/>
</clipPath>
</defs>
</svg>
