<svg width="31" height="27" viewBox="0 0 31 27" fill="none" xmlns="http://www.w3.org/2000/svg">
<rect opacity="0.3" x="0.460693" y="0.325531" width="29.8419" height="3.73023" rx="1.86512" fill="black"/>
<rect opacity="0.3" x="0.460693" y="15.2465" width="29.8419" height="3.73023" rx="1.86512" fill="black"/>
<path fill-rule="evenodd" clip-rule="evenodd" d="M2.32583 7.78604C1.29575 7.78604 0.460707 8.62108 0.460707 9.65116C0.460707 10.6812 1.29575 11.5163 2.32583 11.5163H17.2468C18.2769 11.5163 19.1119 10.6812 19.1119 9.65116C19.1119 8.62108 18.2769 7.78604 17.2468 7.78604H2.32583ZM2.32581 22.707C1.29574 22.707 0.460693 23.542 0.460693 24.5721C0.460693 25.6022 1.29574 26.4372 2.32581 26.4372H17.2468C18.2768 26.4372 19.1119 25.6022 19.1119 24.5721C19.1119 23.542 18.2768 22.707 17.2468 22.707H2.32581Z" fill="#303C4B"/>
</svg>
