<svg width="17" height="19" viewBox="0 0 17 19" fill="none" xmlns="http://www.w3.org/2000/svg">
<g opacity="0.8" clip-path="url(#clip0)">
<path d="M13.2999 13.5H16.2999L11.8999 17.9V14.9C11.8999 14.2 12.4999 13.5 13.2999 13.5Z" fill="#B3B3B3"/>
<path d="M8.5002 7.8H7.7002V10.4H8.5002C8.7002 10.4 8.9002 10.2 8.9002 10V8.2C8.9002 8 8.7002 7.8 8.5002 7.8Z" fill="#303C4B"/>
<path d="M4.6002 7.8H3.7002V8.6H4.5002C4.8002 8.6 5.0002 8.4 5.0002 8.2C5.0002 8 4.8002 7.8 4.6002 7.8Z" fill="#303C4B"/>
<path d="M14.2 0H2.4C1.1 0 0 1.1 0 2.4V15.8C0 17.1 1.1 18.2 2.4 18.2H10.9V15C10.9 13.7 12 12.6 13.3 12.6H16.6V2.4C16.6 1.1 15.5 0 14.2 0ZM4.6 9.6H3.7V10.9C3.7 11.2 3.5 11.4 3.2 11.4C2.9 11.4 2.7 11.2 2.7 10.9V7.3C2.7 7 3 6.8 3.2 6.8H4.5C5.4 6.8 6 7.5 6 8.2C6 9 5.3 9.6 4.6 9.6ZM9.9 10C9.9 10.8 9.3 11.4 8.5 11.4H7.2C6.9 11.4 6.7 11.2 6.7 10.9V7.3C6.7 7 6.9 6.8 7.2 6.8H8.5C9.3 6.8 9.9 7.4 9.9 8.2V10ZM13.4 7.8H11.6V8.6H12.8C13.1 8.6 13.3 8.8 13.3 9.1C13.3 9.4 13.1 9.6 12.8 9.6H11.6V10.9C11.6 11.2 11.4 11.4 11.1 11.4C10.8 11.4 10.6 11.2 10.6 10.9V7.3C10.6 7 10.8 6.8 11.1 6.8H13.3C13.6 6.8 13.8 7 13.8 7.3C13.9 7.6 13.7 7.8 13.4 7.8Z" fill="#303C4B"/>
</g>
<defs>
<clipPath id="clip0">
<rect width="16.6" height="18.2" fill="white"/>
</clipPath>
</defs>
</svg>
