<svg width="27" height="27" viewBox="0 0 27 27" fill="none" xmlns="http://www.w3.org/2000/svg">
<path opacity="0.3" d="M13.4998 12.0417C10.2782 12.0417 7.6665 9.43 7.6665 6.20833C7.6665 2.98667 10.2782 0.375 13.4998 0.375C16.7215 0.375 19.3332 2.98667 19.3332 6.20833C19.3332 9.43 16.7215 12.0417 13.4998 12.0417Z" fill="#B5B5C3"/>
<path d="M0.37595 25.4572C0.94121 18.497 6.59029 14.9583 13.4757 14.9583C20.458 14.9583 26.1946 18.3026 26.622 25.4583C26.639 25.7434 26.622 26.625 25.5264 26.625C20.1225 26.625 12.0923 26.625 1.43594 26.625C1.07021 26.625 0.34516 25.8363 0.37595 25.4572Z" fill="#B5B5C3"/>
</svg>
