<svg width="38" height="38" viewBox="0 0 38 38" fill="none" xmlns="http://www.w3.org/2000/svg">
<g clip-path="url(#clip0)">
<path d="M18.926 22.7754C18.3271 21.916 18.4469 20.7496 19.1656 19.9515L20.3037 18.7851C21.0224 18.0485 22.1604 17.9257 23.0589 18.5396L24.1969 19.3376C24.1969 19.2762 24.2568 19.2149 24.2568 19.1535C24.4365 18.8465 25.1552 17.189 25.275 16.9435C25.6943 16.2682 26.3532 15.8998 27.1318 15.8998H28.749C28.8688 15.8998 28.9886 15.8998 29.1084 15.9612C29.1084 15.8998 29.1084 15.7771 29.1084 15.7157V13.4443C29.1084 12.8304 28.6891 12.3393 28.1501 12.2165L25.5745 11.7254C25.2151 11.664 24.8558 11.357 24.736 10.9887C24.6162 10.6204 24.4964 10.3134 24.3167 9.94508C24.137 9.57674 24.1969 9.14702 24.4365 8.84007L25.9339 6.63006C26.2334 6.13894 26.1735 5.46366 25.8141 5.03393L24.2568 3.43781C23.8375 3.00809 23.1787 2.9467 22.6995 3.31503L20.4234 4.84977C20.124 5.09532 19.7047 5.09532 19.3453 4.97254C19.0458 4.78838 18.6865 4.6656 18.3271 4.54282C17.9677 4.42004 17.6682 4.05171 17.6083 3.68337L17.1292 1.04363C17.0094 0.429737 16.5302 0.0614014 15.9312 0.0614014H13.7151C13.1161 0.0614014 12.6369 0.491126 12.5172 1.04363L12.038 3.68337C11.9781 4.05171 11.6786 4.42004 11.3192 4.54282C10.9599 4.6656 10.6604 4.78838 10.301 4.97254C9.94162 5.15671 9.52235 5.09532 9.22287 4.84977L7.0666 3.31503C6.64733 3.00809 5.98847 3.06948 5.6291 3.43781L4.0119 5.09532C3.65252 5.46366 3.59263 6.13894 3.89211 6.63006L5.38951 8.84007C5.5692 9.20841 5.6291 9.63813 5.44941 9.94508C5.26972 10.252 5.14993 10.6204 5.03013 10.9887C4.91034 11.357 4.55097 11.664 4.19159 11.7254L1.61605 12.2165C1.01709 12.3393 0.657715 12.8304 0.657715 13.4443V15.7157C0.657715 16.3296 1.07699 16.8207 1.61605 16.9435L4.19159 17.4346C4.55097 17.496 4.91034 17.8029 5.03013 18.1712C5.14993 18.5396 5.26972 18.8465 5.44941 19.2149C5.6291 19.5832 5.5692 20.0129 5.32962 20.3199L3.83221 22.5299C3.53273 23.021 3.59263 23.6963 3.952 24.126L5.5093 25.7221C5.92858 26.1519 6.58743 26.2132 7.0666 25.8449L9.22287 24.3102C9.52235 24.0646 9.94162 24.0646 10.301 24.1874C10.6005 24.3716 10.9599 24.4943 11.3192 24.6171C11.6786 24.7399 11.9781 25.1082 12.038 25.4766L12.5172 28.1163C12.6369 28.7302 13.1161 29.0985 13.7151 29.0985H15.9312C16.1109 29.0985 16.2307 29.0371 16.4104 28.9758C16.3505 28.7916 16.3505 28.6688 16.3505 28.4846V26.8271C16.3505 26.0905 16.7099 25.3538 17.3088 24.9855C18.0875 24.6171 18.926 24.3102 19.7646 24.0646L18.926 22.7754ZM14.8531 19.2149C12.3375 19.2149 10.301 17.1276 10.301 14.5493C10.301 11.9709 12.3375 9.88369 14.8531 9.88369C17.3687 9.88369 19.4052 11.9709 19.4052 14.5493C19.4052 17.1276 17.3687 19.2149 14.8531 19.2149Z" fill="#303C4B"/>
<path d="M37.4337 26.2746L35.5769 25.9063C35.2175 25.8449 34.9181 25.5993 34.7983 25.231C34.7384 24.9855 34.6186 24.7399 34.4988 24.4943C34.3191 24.1874 34.379 23.7577 34.5587 23.4507L35.6368 21.8546C35.8165 21.609 35.7566 21.2407 35.5769 20.9952L34.4389 19.8288C34.1993 19.5832 33.8399 19.5832 33.6003 19.7674L32.043 20.8724C31.7436 21.0565 31.3842 21.1179 31.0248 20.9338C30.7852 20.811 30.5456 20.7496 30.3061 20.6268C29.9467 20.504 29.7071 20.1971 29.6472 19.8288L29.2878 17.9257C29.2279 17.6187 28.9883 17.3732 28.629 17.3732H27.0118C26.7123 17.3732 26.4128 17.6187 26.3529 17.9257L25.9935 19.8288C25.9336 20.1971 25.6941 20.504 25.3347 20.6268C25.0951 20.6882 24.8555 20.811 24.6159 20.9338C24.3164 21.1179 23.8972 21.0565 23.5977 20.8724L22.2201 19.7674C21.9805 19.5832 21.6211 19.6446 21.3815 19.8288L20.2435 20.9952C20.0039 21.2407 20.0039 21.609 20.1836 21.8546L21.2617 23.4507C21.4414 23.7577 21.5013 24.126 21.3216 24.4943C21.2018 24.7399 21.1419 24.9855 21.0222 25.231C20.9024 25.5993 20.6029 25.8449 20.2435 25.9063L18.3867 26.2746C18.0872 26.336 17.8477 26.5816 17.8477 26.9499V28.6074C17.8477 28.9144 18.0872 29.2213 18.3867 29.2827L20.2435 29.651C20.6029 29.7124 20.9024 29.958 21.0222 30.3263C21.082 30.5719 21.2018 30.8174 21.3216 31.063C21.5013 31.3699 21.4414 31.7997 21.2617 32.1066L20.1836 33.7027C20.0039 33.9483 20.0638 34.3166 20.2435 34.5622L21.3815 35.7286C21.6211 35.9741 21.9805 35.9741 22.2201 35.79L23.7774 34.685C24.0769 34.5008 24.4362 34.4394 24.7956 34.6236C25.0352 34.7464 25.2748 34.8077 25.5144 34.9305C25.8737 35.0533 26.1133 35.3602 26.1732 35.7286L26.5326 37.6316C26.5925 37.9386 26.8321 38.1842 27.1915 38.1842H28.8087C29.1081 38.1842 29.4076 37.9386 29.4675 37.6316L29.8269 35.7286C29.8868 35.3602 30.1264 35.0533 30.4857 34.9305C30.7253 34.8691 30.9649 34.7464 31.2045 34.6236C31.504 34.4394 31.9233 34.5008 32.2227 34.685L33.78 35.79C34.0196 35.9741 34.379 35.9128 34.6186 35.7286L35.7566 34.5622C35.9962 34.3166 35.9962 33.9483 35.8165 33.7027L34.7384 32.1066C34.5587 31.7997 34.4988 31.4313 34.6785 31.063C34.7983 30.8174 34.8582 30.5719 34.978 30.3263C35.0977 29.958 35.3972 29.7124 35.7566 29.651L37.6134 29.2827C37.9129 29.2213 38.1525 28.9758 38.1525 28.6074V26.9499C37.9728 26.5816 37.7332 26.336 37.4337 26.2746ZM27.9102 31.5541C25.8737 31.5541 24.1966 29.8352 24.1966 27.748C24.1966 25.6607 25.8737 23.9418 27.9102 23.9418C29.9467 23.9418 31.6238 25.6607 31.6238 27.748C31.6238 29.8352 29.9467 31.5541 27.9102 31.5541Z" fill="#B3B3B3"/>
</g>
<defs>
<clipPath id="clip0">
<rect width="37.3153" height="38" fill="white" transform="translate(0.657715)"/>
</clipPath>
</defs>
</svg>
