<svg width="22" height="27" viewBox="0 0 22 27" fill="none" xmlns="http://www.w3.org/2000/svg">
<g clip-path="url(#clip0)">
<path d="M21.1303 0H7.74023C7.79673 0.1675 7.85322 0.390833 7.85322 0.558333V6.08583C7.85322 7.035 7.11875 7.76083 6.15828 7.76083H0.56498C0.395486 7.76083 0.169494 7.705 0 7.64917V26.2417C0 26.5767 0.225992 26.8 0.56498 26.8H21.1303C21.4692 26.8 21.6952 26.5767 21.6952 26.2417V0.558333C21.6952 0.279167 21.4127 0 21.1303 0ZM6.94926 21.3842C6.94926 21.7192 6.66677 21.9425 6.38428 21.9425H3.27689C2.9379 21.9425 2.7119 21.7192 2.7119 21.3842V8.93333C2.7119 8.65417 2.9379 8.375 3.27689 8.375H6.44077C6.72326 8.375 7.00575 8.65417 7.00575 8.93333V21.3842H6.94926ZM12.9945 21.3842C12.9945 21.7192 12.7121 21.9425 12.4296 21.9425H9.26567C8.92669 21.9425 8.70069 21.7192 8.70069 21.3842V11.6133C8.70069 11.3342 8.92669 11.055 9.26567 11.055H12.4296C12.7121 11.055 12.9945 11.3342 12.9945 11.6133V21.3842ZM18.9833 21.3842C18.9833 21.7192 18.7573 21.9425 18.4184 21.9425H15.2545C14.9155 21.9425 14.6895 21.7192 14.6895 21.3842V13.5675C14.6895 13.2883 14.9155 13.0092 15.2545 13.0092H18.4184C18.7573 13.0092 18.9833 13.2883 18.9833 13.5675V21.3842Z" fill="#B5B5C3"/>
<path d="M0.564828 6.64399H6.15813C6.49712 6.64399 6.72311 6.36482 6.72311 6.08565V0.558154C6.72311 0.334821 6.61012 0.111488 6.38412 0.0556542C6.15813 -0.0560125 5.93214 -0.000179132 5.76265 0.167321L0.169342 5.69482C-0.0001522 5.86232 -0.0566502 6.08565 0.0563458 6.30899C0.112844 6.53232 0.338836 6.64399 0.564828 6.64399Z" fill="#B5B5C3"/>
</g>
<defs>
<clipPath id="clip0">
<rect width="21.6952" height="26.8" fill="white"/>
</clipPath>
</defs>
</svg>
