<svg width="18" height="20" viewBox="0 0 18 20" fill="none" xmlns="http://www.w3.org/2000/svg">
<path opacity="0.3" d="M11.6085 14.6866C11.1761 14.2541 11.1761 13.5529 11.6085 13.1205C12.041 12.688 12.7422 12.688 13.1747 13.1205L17.6043 17.5501C18.0368 17.9826 18.0368 18.6838 17.6043 19.1162C17.1718 19.5487 16.4707 19.5487 16.0382 19.1162L11.6085 14.6866Z" fill="black"/>
<path fill-rule="evenodd" clip-rule="evenodd" d="M0.209961 8.36644C0.209961 12.6477 3.68061 16.1183 7.96186 16.1183C12.2431 16.1183 15.7138 12.6477 15.7138 8.36644C15.7138 4.08518 12.2431 0.614532 7.96186 0.614532C3.68061 0.614532 0.209961 4.08518 0.209961 8.36644ZM13.4989 8.36645C13.4989 11.4245 11.0199 13.9035 7.96185 13.9035C4.90381 13.9035 2.42478 11.4245 2.42478 8.36645C2.42478 5.30841 4.90381 2.82937 7.96185 2.82937C11.0199 2.82937 13.4989 5.30841 13.4989 8.36645Z" fill="#303C4B"/>
</svg>
