<?xml version="1.0" encoding="utf-8"?>
<!-- Generator: Adobe Illustrator 25.0.0, SVG Export Plug-In . SVG Version: 6.00 Build 0)  -->
<svg version="1.1" id="Layer_1" xmlns="http://www.w3.org/2000/svg" xmlns:xlink="http://www.w3.org/1999/xlink" x="0px" y="0px"
	 viewBox="0 0 17.7 18.8" style="enable-background:new 0 0 17.7 18.8;" xml:space="preserve">
<style type="text/css">
	.st0{opacity:0.3;fill:#F2F5F8;enable-background:new    ;}
	.st1{fill-rule:evenodd;clip-rule:evenodd;fill:#F2F5F8;}
</style>
<path class="st0" d="M11.4,14.1c-0.4-0.4-0.4-1.1,0-1.6c0.4-0.4,1.1-0.4,1.6,0l4.4,4.4c0.4,0.4,0.4,1.1,0,1.6
	c-0.4,0.4-1.1,0.4-1.6,0L11.4,14.1z"/>
<path class="st1" d="M0,7.8c0,4.3,3.5,7.8,7.8,7.8c4.3,0,7.8-3.5,7.8-7.8C15.5,3.5,12,0,7.8,0C3.5,0,0,3.5,0,7.8z M13.3,7.8
	c0,3.1-2.5,5.5-5.5,5.5c-3.1,0-5.5-2.5-5.5-5.5c0-3.1,2.5-5.5,5.5-5.5C10.8,2.2,13.3,4.7,13.3,7.8z"/>
</svg>
