<svg width="193" height="42" viewBox="0 0 193 42" fill="none" xmlns="http://www.w3.org/2000/svg">
<path fill-rule="evenodd" clip-rule="evenodd" d="M4.07309 0.00133659H16.7137C16.7137 0.00133659 17.6969 -0.139089 19.0312 2.45878L25.4919 13.9035C25.4919 13.9035 26.3346 15.3779 27.5285 15.5184H30.8993L26.8262 20.9247H24.579C24.579 20.9247 22.7531 20.9247 21.4188 18.1864L14.9581 6.3907C14.9581 6.3907 14.5367 5.40772 13.1322 5.47793H0L4.07309 0.00133659Z" fill="#D93832"/>
<path fill-rule="evenodd" clip-rule="evenodd" d="M7.30347 6.46149H13.7642L21.4188 20.0125C21.4188 20.0125 22.0509 21.5572 23.8767 21.9083H26.124L22.4722 26.8232H20.0845C20.0845 26.8232 18.5396 26.8934 17.5564 24.9274L7.30347 6.46149Z" fill="#D93832"/>
<path fill-rule="evenodd" clip-rule="evenodd" d="M0 6.46149H6.25009L17.416 26.4721C17.416 26.4721 17.9076 27.5955 19.1716 27.736H21.77L17.8373 33.0019H15.5901C15.5901 33.0019 14.5367 33.0019 13.6238 31.1764L0 6.46149Z" fill="#D93832"/>
<path d="M52.2509 25.5359C52.2509 27.221 51.97 28.6955 51.4784 29.9593C50.9868 31.2232 50.2845 32.3466 49.4418 33.1891C48.5991 34.0317 47.5457 34.7338 46.3519 35.1551C45.1581 35.5764 43.8238 35.787 42.4193 35.787C41.0147 35.787 39.7507 35.5764 38.4866 35.1551C37.2928 34.7338 36.2394 34.0317 35.3967 33.1891C34.554 32.3466 33.8517 31.2232 33.3601 29.9593C32.8686 28.6955 32.5876 27.1508 32.5876 25.5359C32.5876 23.921 32.8686 22.3764 33.3601 21.1125C33.8517 19.8487 34.554 18.7253 35.4669 17.8827C36.3798 17.0402 37.363 16.3381 38.5568 15.9168C39.7507 15.4253 41.0147 15.2147 42.4193 15.2147C43.8238 15.2147 45.0878 15.4253 46.2817 15.8466C47.4755 16.2679 48.5289 16.97 49.3716 17.8125C50.2845 18.6551 50.9166 19.7785 51.4784 21.0423C51.97 22.3764 52.2509 23.8508 52.2509 25.5359ZM47.8969 25.5359C47.8969 23.2891 47.4053 21.604 46.4221 20.4104C45.439 19.2168 44.1047 18.6551 42.4193 18.6551C40.7338 18.6551 39.3995 19.2168 38.4164 20.4104C37.4332 21.604 36.9416 23.2891 36.9416 25.5359C36.9416 27.7827 37.4332 29.5381 38.4164 30.6615C39.3995 31.8551 40.7338 32.4168 42.4193 32.4168C44.1047 32.4168 45.439 31.8551 46.4221 30.6615C47.4053 29.4679 47.8969 27.7827 47.8969 25.5359Z" fill="black"/>
<path d="M63.0656 23.4296C62.5038 23.0083 61.8015 22.7976 60.8886 22.7976C60.2566 22.7976 59.6948 22.8678 59.133 23.0083C58.5712 23.1487 58.1498 23.3593 57.7285 23.57V35.2253C57.5178 35.2955 57.3071 35.2955 56.956 35.3657C56.6048 35.4359 56.3942 35.5764 55.9728 35.5764C55.2003 35.5764 54.6385 35.4359 54.2874 35.1551C53.9363 34.8742 53.7256 34.3827 53.7256 33.6806V23.2891C53.7256 22.7976 53.866 22.3764 54.0767 22.0253C54.2874 21.6742 54.6385 21.3934 55.0599 21.1125C55.6919 20.6913 56.5346 20.3402 57.5178 20.0593C58.5712 19.7785 59.6948 19.6381 60.9588 19.6381C63.2061 19.6381 64.8915 20.1296 66.0853 21.1125C67.2791 22.0955 67.9112 23.4998 67.9112 25.3955V35.3657C67.7707 35.4359 67.4898 35.4359 67.1387 35.5061C66.7876 35.5764 66.4364 35.5764 66.0853 35.5764C65.3128 35.5764 64.751 35.4359 64.3999 35.1551C64.0488 34.8742 63.8381 34.3827 63.8381 33.6806V25.4657C63.8381 24.553 63.6274 23.8508 63.0656 23.4296Z" fill="black"/>
<path d="M73.3888 29.538C73.6697 30.6614 74.2315 31.4338 75.0742 31.9253C75.9169 32.4168 76.9001 32.6976 78.0939 32.6976C79.0068 32.6976 79.8495 32.5572 80.622 32.2763C81.3945 31.9955 82.0265 31.7146 82.4479 31.4338C82.7288 31.5742 83.0097 31.8551 83.2204 32.1359C83.431 32.4168 83.5013 32.7678 83.5013 33.1189C83.5013 33.5402 83.3608 33.9614 83.0799 34.2423C82.799 34.5934 82.3777 34.8742 81.8861 35.0848C81.3945 35.2955 80.7625 35.5061 80.0602 35.6465C79.3579 35.787 78.6557 35.8572 77.813 35.8572C76.5489 35.8572 75.3551 35.7168 74.3719 35.3657C73.3185 35.0146 72.4056 34.5231 71.7033 33.821C70.9309 33.1189 70.3691 32.2763 69.9477 31.2231C69.5264 30.17 69.3157 28.9763 69.3157 27.6423C69.3157 26.3083 69.5264 25.1146 69.9477 24.1317C70.3691 23.1487 70.9309 22.3061 71.6331 21.6742C72.3354 21.0423 73.1781 20.4806 74.091 20.1997C75.004 19.8487 75.9871 19.7083 77.0405 19.7083C78.0939 19.7083 79.077 19.8487 79.9198 20.1997C80.8327 20.5508 81.5349 20.9721 82.167 21.604C82.799 22.1657 83.2906 22.938 83.6417 23.7104C83.9928 24.5529 84.2035 25.4657 84.2035 26.3785C84.2035 27.0104 84.0631 27.4317 83.7119 27.7125C83.431 27.9934 82.9395 28.204 82.3777 28.2742L73.3888 29.538ZM76.9703 22.6572C75.9169 22.6572 75.004 23.0083 74.3017 23.7104C73.5994 24.4125 73.1781 25.3955 73.1079 26.7295L80.2709 25.6763C80.2007 24.904 79.8495 24.2019 79.3579 23.57C78.8664 22.938 78.0237 22.6572 76.9703 22.6572Z" fill="black"/>
<path d="M105.342 20.7615C105.342 21.7444 105.061 22.587 104.569 23.2891C104.077 23.9912 103.305 24.5529 102.322 24.9742C103.586 25.3955 104.499 26.0274 105.131 26.7998C105.763 27.6423 106.044 28.5551 106.044 29.6785C106.044 31.7146 105.271 33.2593 103.797 34.2423C102.322 35.2253 100.145 35.7168 97.3358 35.7168C96.9144 35.7168 96.4931 35.7168 96.0015 35.7168C95.5099 35.7168 95.0886 35.6466 94.597 35.5763C94.1054 35.5061 93.6841 35.4359 93.1925 35.3657C92.7009 35.2955 92.2795 35.1551 91.8582 35.0146C90.8048 34.6636 90.3132 34.0317 90.3132 33.1189V17.3912C90.3132 16.97 90.4537 16.6891 90.6644 16.4785C90.875 16.2678 91.1559 16.0572 91.5773 15.987C92.2796 15.7763 93.1925 15.5657 94.1054 15.4955C95.0886 15.4253 96.0717 15.3551 97.1251 15.3551C99.7235 15.3551 101.76 15.7763 103.165 16.6891C104.639 17.5317 105.342 18.8657 105.342 20.7615ZM94.4565 23.7104H97.6869C98.8808 23.7104 99.7235 23.4998 100.285 23.0083C100.847 22.5168 101.128 21.8849 101.128 21.0423C101.128 19.3572 99.7937 18.5146 97.1954 18.5146C96.6335 18.5146 96.142 18.5146 95.6504 18.5849C95.1588 18.6551 94.7375 18.6551 94.3863 18.7253V23.7104H94.4565ZM101.76 29.6083C101.76 28.7657 101.479 28.0636 100.847 27.5721C100.215 27.0806 99.3723 26.7998 98.1785 26.7998H94.3863V32.2061C94.8077 32.3466 95.2993 32.4168 95.8611 32.4168C96.4229 32.487 96.9847 32.487 97.5465 32.487C98.8808 32.487 99.8639 32.2764 100.636 31.7849C101.409 31.2934 101.76 30.5912 101.76 29.6083Z" fill="black"/>
<path d="M122.617 27.6423C122.617 28.9061 122.406 30.0296 122.055 31.0125C121.704 31.9955 121.142 32.8381 120.44 33.6104C119.738 34.3125 118.895 34.8742 117.982 35.2253C116.999 35.5764 115.946 35.787 114.752 35.787C113.558 35.787 112.434 35.5764 111.521 35.2253C110.538 34.8742 109.696 34.3125 109.063 33.6104C108.361 32.9083 107.87 32.0657 107.448 31.0827C107.097 30.0998 106.886 28.9764 106.886 27.7125C106.886 26.4487 107.097 25.3253 107.448 24.3423C107.799 23.3593 108.361 22.5168 109.063 21.8147C109.766 21.1125 110.608 20.5508 111.592 20.1998C112.575 19.8487 113.628 19.6381 114.822 19.6381C116.016 19.6381 117.069 19.8487 118.052 20.1998C119.036 20.5508 119.878 21.1125 120.58 21.8147C121.283 22.5168 121.845 23.3593 122.196 24.4125C122.406 25.3253 122.617 26.4487 122.617 27.6423ZM114.682 22.7976C113.488 22.7976 112.575 23.2189 111.943 24.0615C111.24 24.904 110.96 26.0976 110.96 27.6423C110.96 29.187 111.311 30.4508 111.943 31.2232C112.575 32.0657 113.488 32.487 114.682 32.487C115.875 32.487 116.788 32.0657 117.42 31.2232C118.052 30.3806 118.403 29.187 118.403 27.6423C118.403 26.0976 118.052 24.904 117.42 24.0615C116.788 23.2189 115.875 22.7976 114.682 22.7976Z" fill="black"/>
<path d="M139.05 27.6423C139.05 28.9061 138.839 30.0296 138.488 31.0125C138.137 31.9955 137.575 32.8381 136.873 33.6104C136.171 34.3125 135.328 34.8742 134.415 35.2253C133.432 35.5764 132.378 35.787 131.185 35.787C129.991 35.787 128.867 35.5764 127.954 35.2253C126.971 34.8742 126.128 34.3125 125.496 33.6104C124.794 32.9083 124.302 32.0657 123.881 31.0827C123.53 30.0998 123.319 28.9764 123.319 27.7125C123.319 26.4487 123.53 25.3253 123.881 24.3423C124.232 23.3593 124.794 22.5168 125.496 21.8147C126.199 21.1125 127.041 20.5508 128.024 20.1998C129.008 19.8487 130.061 19.6381 131.255 19.6381C132.449 19.6381 133.502 19.8487 134.485 20.1998C135.468 20.5508 136.311 21.1125 137.013 21.8147C137.716 22.5168 138.277 23.3593 138.629 24.4125C138.909 25.3253 139.05 26.4487 139.05 27.6423ZM131.185 22.7976C129.991 22.7976 129.078 23.2189 128.446 24.0615C127.744 24.904 127.463 26.0976 127.463 27.6423C127.463 29.187 127.814 30.4508 128.446 31.2232C129.078 32.0657 129.991 32.487 131.185 32.487C132.378 32.487 133.291 32.0657 133.923 31.2232C134.555 30.3806 134.907 29.187 134.907 27.6423C134.907 26.0976 134.555 24.904 133.923 24.0615C133.221 23.2189 132.308 22.7976 131.185 22.7976Z" fill="black"/>
<path d="M143.825 35.4359C143.474 35.5061 143.123 35.5061 142.702 35.5061C141.929 35.5061 141.367 35.3657 141.016 35.0849C140.665 34.804 140.454 34.3125 140.454 33.6104V14.3721C140.595 14.3019 140.876 14.2317 141.227 14.1615C141.578 14.0912 141.929 14.0912 142.35 14.0912C143.123 14.0912 143.685 14.2317 144.036 14.5125C144.387 14.7934 144.598 15.2849 144.598 15.987V25.9572L150.848 19.7083C151.69 19.7083 152.322 19.9189 152.814 20.27C153.306 20.621 153.587 21.1125 153.587 21.6742C153.587 22.1657 153.446 22.587 153.095 22.9381C152.814 23.2891 152.322 23.7806 151.62 24.3423L148.109 27.3615L154.289 33.1189C154.219 33.8912 154.008 34.4529 153.587 34.8742C153.235 35.2955 152.674 35.5061 151.971 35.5061C151.48 35.5061 151.058 35.3657 150.637 35.1551C150.216 34.9444 149.794 34.5232 149.233 33.8912L144.457 28.6253V35.2253C144.457 35.3657 144.176 35.3657 143.825 35.4359Z" fill="black"/>
<path d="M155.202 15.4955C155.202 14.8636 155.413 14.3721 155.834 13.8806C156.255 13.3891 156.817 13.2487 157.519 13.2487C158.222 13.2487 158.783 13.4593 159.205 13.8806C159.626 14.3019 159.837 14.8636 159.837 15.4955C159.837 16.1274 159.626 16.6891 159.205 17.1104C158.783 17.5317 158.222 17.7423 157.519 17.7423C156.817 17.7423 156.255 17.5317 155.834 17.1104C155.413 16.6891 155.202 16.1274 155.202 15.4955ZM155.553 20.1295C155.693 20.0593 155.974 20.0593 156.326 19.9891C156.677 19.9189 157.028 19.9189 157.379 19.9189C158.151 19.9189 158.713 20.0593 159.064 20.3402C159.415 20.621 159.626 21.1125 159.626 21.8146V35.2955C159.486 35.3657 159.205 35.3657 158.854 35.4359C158.503 35.5061 158.151 35.5061 157.8 35.5061C157.028 35.5061 156.466 35.3657 156.115 35.0849C155.764 34.804 155.553 34.3125 155.553 33.6104V20.1295Z" fill="black"/>
<path d="M171.213 23.4296C170.651 23.0083 169.949 22.7976 169.036 22.7976C168.404 22.7976 167.842 22.8678 167.28 23.0083C166.719 23.1487 166.297 23.3593 165.876 23.57V35.2253C165.665 35.2955 165.455 35.2955 165.104 35.3657C164.752 35.4359 164.401 35.4359 163.98 35.4359C163.207 35.4359 162.646 35.2955 162.294 35.0147C161.943 34.7338 161.733 34.2423 161.733 33.5402V23.2891C161.733 22.7976 161.873 22.3764 162.084 22.0253C162.294 21.6742 162.646 21.3934 163.067 21.1125C163.699 20.6913 164.542 20.3402 165.525 20.0593C166.578 19.7785 167.702 19.6381 168.966 19.6381C171.213 19.6381 172.899 20.1296 174.092 21.1125C175.286 22.0955 175.918 23.4998 175.918 25.3955V35.3657C175.778 35.4359 175.497 35.4359 175.146 35.5061C174.795 35.5764 174.444 35.5764 174.092 35.5764C173.32 35.5764 172.758 35.4359 172.407 35.1551C172.056 34.8742 171.845 34.3827 171.845 33.6806V25.4657C171.986 24.553 171.775 23.8508 171.213 23.4296Z" fill="black"/>
<path d="M188.068 34.0317C187.646 34.2423 187.155 34.4529 186.593 34.5934C186.031 34.7338 185.329 34.804 184.626 34.804C183.643 34.804 182.73 34.6636 181.888 34.3827C181.045 34.1019 180.272 33.6806 179.64 33.0487C179.008 32.4168 178.517 31.6444 178.095 30.7317C177.744 29.7487 177.534 28.6253 177.534 27.221C177.534 25.9572 177.744 24.904 178.095 23.921C178.447 22.9381 179.008 22.1657 179.711 21.5338C180.413 20.9019 181.256 20.4104 182.239 20.0593C183.222 19.7083 184.275 19.5678 185.469 19.5678C186.593 19.5678 187.646 19.7083 188.559 19.9891C189.472 20.27 190.245 20.621 190.806 20.9721C191.228 21.2529 191.509 21.5338 191.719 21.8146C191.93 22.1657 192.07 22.5168 192.07 23.0083V35.4359C192.07 36.5593 191.86 37.4721 191.438 38.2444C191.017 39.0168 190.525 39.7189 189.823 40.2104C189.121 40.7019 188.348 41.0529 187.436 41.3338C186.523 41.5444 185.539 41.6849 184.416 41.6849C183.292 41.6849 182.309 41.6147 181.466 41.404C180.624 41.1934 179.992 40.9827 179.64 40.7019C178.938 40.2806 178.587 39.6487 178.587 38.8764C178.587 38.4551 178.657 38.104 178.868 37.8232C179.008 37.5423 179.219 37.2615 179.5 37.121C180.062 37.4721 180.764 37.7529 181.537 38.0338C182.309 38.3147 183.152 38.4551 184.065 38.4551C185.329 38.4551 186.382 38.1742 187.084 37.6827C187.787 37.1912 188.208 36.4189 188.208 35.2955V34.0317H188.068ZM185.259 31.6444C185.891 31.6444 186.382 31.5742 186.874 31.3636C187.365 31.1529 187.716 31.0125 187.997 30.7317V23.4295C187.716 23.2891 187.365 23.0785 186.944 23.0083C186.523 22.8678 186.101 22.7976 185.539 22.7976C184.346 22.7976 183.433 23.1487 182.66 23.8508C181.958 24.5529 181.607 25.6764 181.607 27.221C181.607 28.0636 181.677 28.6955 181.888 29.2572C182.098 29.8189 182.309 30.2402 182.66 30.5912C183.011 30.9423 183.362 31.1529 183.854 31.3636C184.275 31.504 184.767 31.6444 185.259 31.6444Z" fill="black"/>
</svg>
