<?xml version="1.0" encoding="utf-8"?>
<!-- Generator: Adobe Illustrator 25.0.0, SVG Export Plug-In . SVG Version: 6.00 Build 0)  -->
<svg version="1.1" id="Layer_1" xmlns="http://www.w3.org/2000/svg" xmlns:xlink="http://www.w3.org/1999/xlink" x="0px" y="0px"
	 viewBox="0 0 850 773" style="enable-background:new 0 0 850 773;" xml:space="preserve">
<style type="text/css">
	.st0{fill:#F3F6F8;}
	.st1{fill-rule:evenodd;clip-rule:evenodd;fill:#E8AEAD;}
	.st2{fill-rule:evenodd;clip-rule:evenodd;fill:#F7C9A8;}
	.st3{fill-rule:evenodd;clip-rule:evenodd;fill:#FFFFFF;}
	.st4{opacity:0.63;}
	.st5{opacity:0.7;fill:#FFFFFF;enable-background:new    ;}
	.st6{fill:#FFFFFF;}
	.st7{fill:#F1FCF1;}
	.st8{fill:#E8ADAD;}
	.st9{opacity:0.25;}
	.st10{fill:#F4F6F9;}
	.st11{fill:#ADD3E5;}
	.st12{fill:#A4A4D8;}
	.st13{fill:#21243D;}
	.st14{fill:#171C23;}
	.st15{fill:#313B4A;}
	.st16{fill:#ECC091;}
	.st17{fill:#FEE3C6;}
	.st18{fill:#94163D;}
	.st19{fill:#35393A;}
	.st20{fill:#E8AEAD;}
	.st21{fill:#C49090;}
	.st22{opacity:0.42;}
	.st23{fill:#FE5923;}
	.st24{fill-rule:evenodd;clip-rule:evenodd;fill:#A4A4D8;}
	.st25{fill:#90D6BB;}
	.st26{fill:#B2DFC5;}
	.st27{fill:#E7ADAC;}
	.st28{fill:#F7C9A8;}
</style>
<path class="st0" d="M161.7,810c-29.9,0-77.4-16.4-108-56.1C18.5,708,15.8,636.2,45,582.6c25.5-46.9,68.4-66.9,76.9-70.8
	c98-43.7,171.2,40.8,222.2,2.4c54.2-40.8,0-157.4,83.1-244.1c3.9-4,10-10.6,19.8-17.8c77.2-56.4,183.2-29.7,201.7-25
	c25.9,6.5,85,22.3,131.7,77.6c11.1,13.2,52.5,62.1,53.3,129.4c0.9,68.8-44.9,100.8-25.6,133.1c16.4,27.2,52.2,11.3,81.9,44.7
	c33.2,37.2,21,94.1,19.9,99.2c-10.7,46.9-49.2,84.3-99.3,98.4C594.3,810,378,810,161.7,810z"/>
<path class="st1" d="M292.7,685c0,4.5,3.6,8.1,8.2,8.1c4.5,0,8.2-3.6,8.2-8.1c0-4.5-3.6-8.2-8.2-8.2
	C296.3,676.8,292.7,680.4,292.7,685z M295.4,685c0-3,2.4-5.4,5.4-5.4c3,0,5.4,2.4,5.4,5.4c0,3-2.4,5.4-5.4,5.4
	C297.8,690.4,295.4,688,295.4,685z"/>
<path class="st2" d="M619.5,721.1c0,4.5,3.7,8.1,8.2,8.1c4.5,0,8.2-3.6,8.2-8.1c0-4.5-3.7-8.1-8.2-8.1
	C623.2,713,619.5,716.6,619.5,721.1z M622.2,721.1c0-3,2.4-5.4,5.4-5.4v0c3,0,5.4,2.4,5.4,5.4c0,3-2.4,5.4-5.4,5.4
	C624.7,726.6,622.2,724.1,622.2,721.1z"/>
<path class="st2" d="M402.3,727.9c0,4.5,3.6,8.1,8.2,8.1c2.2,0,4.2-0.9,5.8-2.4c1.5-1.5,2.4-3.6,2.4-5.8c0-4.5-3.6-8.1-8.2-8.1
	C405.9,719.8,402.3,723.4,402.3,727.9z M405,727.9c0-3,2.4-5.4,5.4-5.4c3,0,5.4,2.4,5.4,5.4c0,3-2.4,5.4-5.4,5.4
	C407.4,733.3,405,730.9,405,727.9z"/>
<path class="st3" d="M89.6,481.8c0,4.5,3.7,8.1,8.2,8.1c4.5,0,8.2-3.6,8.2-8.1s-3.7-8.1-8.2-8.1C93.2,473.7,89.6,477.3,89.6,481.8z
	 M92.3,481.8c0-3,2.4-5.4,5.4-5.4v0c3,0,5.4,2.4,5.4,5.4c0,3-2.4,5.4-5.4,5.4C94.7,487.3,92.3,484.8,92.3,481.8z"/>
<path class="st2" d="M695.5,502c0,4.5,3.7,8.1,8.2,8.1c4.5,0,8.2-3.6,8.2-8.1c0-4.5-3.6-8.1-8.2-8.1
	C699.2,493.9,695.5,497.5,695.5,502z M698.3,502c0-3,2.4-5.4,5.4-5.4c3,0,5.4,2.4,5.4,5.4c0,3-2.4,5.4-5.4,5.4
	C700.7,507.5,698.3,505,698.3,502z"/>
<path class="st3" d="M323.4,317.5c0,4.5,3.6,8.1,8.2,8.1c4.5,0,8.2-3.6,8.2-8.1c0-4.5-3.6-8.1-8.2-8.1
	C327.1,309.3,323.4,313,323.4,317.5z M326.1,317.5c0-3,2.4-5.4,5.4-5.4v0c3,0,5.4,2.4,5.4,5.4c0,3-2.4,5.4-5.4,5.4
	C328.6,322.9,326.1,320.5,326.1,317.5z"/>
<path class="st1" d="M181.3,688c0,4.5,3.7,8.1,8.2,8.1c4.5,0,8.2-3.6,8.2-8.1c0-4.5-3.6-8.2-8.2-8.2
	C185,679.8,181.3,683.5,181.3,688z M184.1,688c0-3,2.4-5.4,5.4-5.4c3,0,5.4,2.4,5.4,5.4c0,3-2.4,5.4-5.4,5.4
	C186.5,693.4,184.1,691,184.1,688z"/>
<g class="st4">
	<path class="st5" d="M567.5,602.9H362.7v53.9h204.8c14.9,0,26.9-12.1,27-27l0,0C594.5,615,582.4,602.9,567.5,602.9z"/>
	<path class="st6" d="M157.9,602.9c-14.9,0-26.9,12.1-27,27l0,0c0,14.9,12.1,26.9,27,27h204.8v-53.9H157.9z"/>
</g>
<g>
	<path class="st7" d="M785.4,361.2H670.6c-1.3,0-2.4,1.1-2.4,2.4v98.8l30.4-30.4h86.8c1.3,0,2.4-1.1,2.4-2.4v-66
		C787.8,362.3,786.8,361.2,785.4,361.2L785.4,361.2z"/>
</g>
<path class="st8" d="M684.3,379.3h87.5c1.6,0,2.9,1.3,2.9,2.9v0c0,1.6-1.3,2.9-2.9,2.9h-87.5c-1.6,0-2.9-1.3-2.9-2.9v0
	C681.3,380.6,682.7,379.3,684.3,379.3z"/>
<path class="st8" d="M684.3,393.3h76.8c1.6,0,2.9,1.3,2.9,2.9v0c0,1.6-1.3,2.9-2.9,2.9h-76.8c-1.6,0-2.9-1.3-2.9-2.9v0
	C681.3,394.6,682.7,393.3,684.3,393.3z"/>
<path class="st8" d="M684.3,407.2h60.1c1.6,0,2.9,1.3,2.9,2.9v0c0,1.6-1.3,2.9-2.9,2.9h-60.1c-1.6,0-2.9-1.3-2.9-2.9v0
	C681.3,408.6,682.7,407.2,684.3,407.2z"/>
<g class="st9">
	<path class="st6" d="M281.1,335.5h-58.3c-0.7,0-1.2,0.5-1.2,1.2v50.2l15.4-15.4h44.1c0.7,0,1.2-0.5,1.2-1.2v-33.5
		C282.3,336,281.8,335.5,281.1,335.5z"/>
</g>
<path class="st6" d="M229.7,344.7h44.5c0.8,0,1.5,0.7,1.5,1.5l0,0c0,0.8-0.7,1.5-1.5,1.5h-44.5c-0.8,0-1.5-0.7-1.5-1.5l0,0
	C228.2,345.4,228.9,344.7,229.7,344.7z"/>
<path class="st6" d="M229.7,351.8h39c0.8,0,1.5,0.7,1.5,1.5l0,0c0,0.8-0.7,1.5-1.5,1.5h-39c-0.8,0-1.5-0.7-1.5-1.5l0,0
	C228.2,352.5,228.9,351.8,229.7,351.8z"/>
<path class="st6" d="M229.7,358.9h30.5c0.8,0,1.5,0.7,1.5,1.5l0,0c0,0.8-0.7,1.5-1.5,1.5h-30.5c-0.8,0-1.5-0.7-1.5-1.5l0,0
	C228.2,359.6,228.9,358.9,229.7,358.9z"/>
<g>
	<path class="st10" d="M268.2,262.9h-76.8c-0.9,0-1.6,0.7-1.6,1.6v66.1l20.3-20.4h58.1c0.9,0,1.6-0.7,1.6-1.6v-44.1
		C269.8,263.6,269.1,262.9,268.2,262.9z"/>
</g>
<path class="st8" d="M200.5,275H259c1.1,0,2,0.9,2,2l0,0c0,1.1-0.9,2-2,2h-58.5c-1.1,0-2-0.9-2-2l0,0
	C198.5,275.9,199.4,275,200.5,275z"/>
<path class="st8" d="M200.5,284.4h51.4c1.1,0,2,0.9,2,2l0,0c0,1.1-0.9,2-2,2h-51.4c-1.1,0-2-0.9-2-2l0,0
	C198.5,285.3,199.4,284.4,200.5,284.4z"/>
<path class="st8" d="M200.5,293.7h40.2c1.1,0,2,0.9,2,2l0,0c0,1.1-0.9,2-2,2h-40.2c-1.1,0-2-0.9-2-2l0,0
	C198.5,294.6,199.4,293.7,200.5,293.7z"/>
<g class="st9">
	<path class="st6" d="M550,283.5h97.2c1.1,0,2,0.9,2,2v83.6l-25.7-25.7H550c-1.1,0-2-0.9-2-2v-55.8C548,284.4,548.9,283.5,550,283.5
		z"/>
</g>
<path class="st11" d="M635.6,303.8h-74c-1.4,0-2.5-1.1-2.5-2.5v0c0-1.4,1.1-2.5,2.5-2.5h74c1.4,0,2.5,1.1,2.5,2.5v0
	C638.1,302.7,636.9,303.8,635.6,303.8z"/>
<path class="st12" d="M635.6,315.6h-65c-1.4,0-2.5-1.1-2.5-2.5v0c0-1.4,1.1-2.5,2.5-2.5h65c1.4,0,2.5,1.1,2.5,2.5v0
	C638,314.5,636.9,315.6,635.6,315.6z"/>
<path class="st11" d="M635.6,327.4h-50.8c-1.4,0-2.5-1.1-2.5-2.5v0c0-1.4,1.1-2.5,2.5-2.5h50.8c1.4,0,2.5,1.1,2.5,2.5v0
	C638.1,326.3,636.9,327.4,635.6,327.4z"/>
<g>
	<path class="st7" d="M383,249h77.8c3.1,0,5.5,2.5,5.5,5.5V394c0,3.1-2.5,5.5-5.5,5.5H383c-3.1,0-5.5-2.5-5.5-5.5V254.5
		C377.4,251.5,379.9,249,383,249z"/>
</g>
<path class="st8" d="M416.2,366.9c0-6.2-4.4-11.5-10.4-12.8c-6.1-1.2-12.2,2-14.6,7.7c-2.4,5.7-0.4,12.3,4.7,15.8
	c1-3.2,3.9-5.4,7.3-5.4s6.3,2.2,7.3,5.4C414,375.3,416.2,371.2,416.2,366.9L416.2,366.9z"/>
<path class="st6" d="M403.2,372.3c-3.4,0-6.3,2.2-7.3,5.4c4.4,3,10.2,3,14.6,0C409.5,374.5,406.5,372.3,403.2,372.3z"/>
<path class="st6" d="M403.2,370.8c2.7,0,5-2.2,5-5s-2.2-5-5-5c-2.7,0-5,2.2-5,5S400.4,370.8,403.2,370.8z"/>
<path class="st12" d="M416.2,331.9c0-6.2-4.4-11.5-10.4-12.8c-6.1-1.2-12.2,2-14.6,7.7c-2.4,5.7-0.4,12.3,4.7,15.8
	c1-3.2,3.9-5.4,7.3-5.4s6.3,2.2,7.3,5.4C414,340.2,416.2,336.2,416.2,331.9L416.2,331.9z"/>
<path class="st6" d="M403.2,337.3c-3.3,0-6.3,2.2-7.3,5.4c4.4,3,10.2,3,14.6,0C409.5,339.4,406.5,337.3,403.2,337.3L403.2,337.3z"/>
<path class="st6" d="M403.2,335.7c2.7,0,5-2.2,5-5s-2.2-5-5-5c-2.7,0-5,2.2-5,5S400.4,335.7,403.2,335.7z"/>
<path class="st12" d="M388,257.4h67.7c1.9,0,3.5,1.6,3.5,3.5v0.5c0,1.9-1.6,3.5-3.5,3.5H388c-1.9,0-3.5-1.6-3.5-3.5v-0.5
	C384.5,258.9,386.1,257.4,388,257.4z"/>
<path class="st11" d="M451.3,369.4h-25.9c-1.4,0-2.5-1.1-2.5-2.5v0c0-1.4,1.1-2.5,2.5-2.5h25.9c1.4,0,2.5,1.1,2.5,2.5v0
	C453.8,368.3,452.7,369.4,451.3,369.4z"/>
<path class="st8" d="M416.2,297c0-6.2-4.4-11.5-10.4-12.8s-12.2,2-14.6,7.7c-2.4,5.7-0.4,12.3,4.7,15.8c1-3.2,3.9-5.4,7.3-5.4
	s6.3,2.2,7.3,5.4C414,305.3,416.2,301.3,416.2,297L416.2,297z"/>
<path class="st6" d="M403.2,302.3c-3.3,0-6.3,2.2-7.3,5.4c4.4,3,10.2,3,14.6,0C409.5,304.5,406.5,302.3,403.2,302.3L403.2,302.3z"/>
<path class="st6" d="M403.2,300.8c2.7,0,5-2.2,5-5s-2.2-5-5-5c-2.7,0-5,2.2-5,5S400.4,300.8,403.2,300.8z"/>
<path class="st11" d="M451.3,299.5h-25.9c-1.4,0-2.5-1.1-2.5-2.5v0c0-1.4,1.1-2.5,2.5-2.5h25.9c1.4,0,2.5,1.1,2.5,2.5v0
	C453.8,298.3,452.7,299.5,451.3,299.5z"/>
<path class="st11" d="M451.3,333.2h-25.9c-1.4,0-2.5-1.1-2.5-2.5v0c0-1.4,1.1-2.5,2.5-2.5h25.9c1.4,0,2.5,1.1,2.5,2.5v0
	C453.8,332.1,452.7,333.2,451.3,333.2z"/>
<g class="st9">
	<path class="st6" d="M73.5,342.7h114.8c1.3,0,2.4,1.1,2.4,2.4v98.8l-30.4-30.4H73.5c-1.3,0-2.4-1.1-2.4-2.4v-66
		C71.1,343.8,72.2,342.7,73.5,342.7z"/>
</g>
<path class="st11" d="M157.9,386.7c5.1,0,9.3-4.2,9.3-9.3c0-5.1-4.2-9.3-9.3-9.3s-9.3,4.2-9.3,9.3
	C148.5,382.5,152.7,386.7,157.9,386.7z"/>
<path class="st11" d="M130.9,386.7c5.1,0,9.3-4.2,9.3-9.3c0-5.1-4.2-9.3-9.3-9.3c-5.1,0-9.3,4.2-9.3,9.3
	C121.6,382.5,125.8,386.7,130.9,386.7z"/>
<path class="st11" d="M103.9,386.7c5.1,0,9.3-4.2,9.3-9.3c0-5.1-4.2-9.3-9.3-9.3c-5.1,0-9.3,4.2-9.3,9.3
	C94.6,382.5,98.8,386.7,103.9,386.7z"/>
<path class="st13" d="M703.7,651c0,0,46.6,34.3,52.1,30.8c5.5-3.5,23.3-47.8,19.2-49.8c-4.1-2-24.2,9.8-24.2,9.8l-30-15.9L703.7,651
	z"/>
<path class="st14" d="M525.8,553.3l58.4-24.1c3-1.2,6.4-0.7,8.9,1.3c3.9,3.1,10.1,7.8,16.1,11.5c9.8,6.1,141.9,80.1,141.9,80.1
	L720,669.5c0,0-127.7-94.7-135.5-90.4c-9.2,5.2-89.9,24.9-89.9,24.9s-37.2,7.9-19.9-58.7"/>
<path class="st15" d="M457.4,621.7l66,36.2l-46,137.3l46.5,0.1c0,0,41.7-157,39.1-162.8c-1.3-2.9-56.7-38.5-85.3-66.8
	c-15.6-15.4-48-13.4-49.5-6.5C421.1,591.8,444.7,615.2,457.4,621.7"/>
<path class="st13" d="M590.1,493.3c-1.4,0-2.8-0.8-3.4-2.1s-0.5-2.8,0.3-4l33.6-45.1c0.8-1.1,2.1-1.7,3.5-1.5c1.4,0.2,2.5,1,3.1,2.3
	c0.5,1.2,0.4,2.7-0.4,3.8l-33.6,45.1C592.4,492.8,591.3,493.3,590.1,493.3L590.1,493.3z"/>
<path class="st16" d="M525.7,404.5c0,0-2.8-6.9-4.6-2.7c-1.8,4.3-1.5,8.1,0.4,8.4c1.9,0.2,3.8-2.7,3.8-2.7L525.7,404.5z"/>
<path class="st16" d="M543.6,428.4l-19.7,21.2l-16.7,12.4l-11.6-14.7l9.5-11.5l19.5-30.1L543.6,428.4L543.6,428.4z"/>
<path class="st17" d="M563.1,396c0.5,4.3-3.8,7-5,11.3c-1.4,5.1-2.6,14.1-3.3,22.2c-0.3,3.1-1.3,11.2-3.7,14.1
	c-1.7,2-4.2-4.8-5.3-2.8c-3.7,6.1-13,12.8-14.8,12.2c-3.5-1.1-5.7-8.5-6.8-11.4c-2.2-5.8-3-12.1-2.5-18.3c0.6-7.2,1-14.7,3.4-21.5
	c1.7-5,4.2-11.9,6.7-16.6c2.4-4.5,8.7,1.4,13.1-0.3c7.1-2.7,13.2,1.5,16.6,7.4C562.9,395.2,563,395.8,563.1,396z"/>
<path class="st18" d="M536.3,440.8c1.3,0.6,2.8,1,4.3,1c0.2,0,0.3-0.2,0.3-0.4c0-0.2-0.1-0.4-0.3-0.4c0,0-4.1,0-6-2.7
	c-1.9-2.7-1-4.9-1-5c0-0.1,0-0.2,0-0.3c0-0.1-0.1-0.2-0.2-0.2c-0.1,0-0.2,0-0.3,0c-0.1,0-0.2,0.1-0.2,0.2c0,0.1-1.1,2.7,1.1,5.7
	C534.6,439.6,535.4,440.3,536.3,440.8z"/>
<path class="st13" d="M570.2,403.6c-0.5,1.5-1.3,2.9-2.3,4.1c-1.7,1.9-4.1,1.3-5.8-0.2c-2.8-2.7-3.9-6.9-7-9.2
	c-0.5-0.4-1.1-0.7-1.8-0.8c-0.9,0-1.7,0.5-2.4,1c-4.5,2.7-10.2,2.1-15.3,0.8c-1-0.3-2.1-0.5-3.1-0.3c-1.7,0.4-2.7,2.2-3.9,3.6
	c-1.1,1.4-3.4,2.4-4.6,1.2c-0.5-0.6-0.8-1.4-0.9-2.2l-0.8-4.7c-0.6-3.6-1-8,1.9-10.3c0.7-0.5,1.5-0.9,2.2-1.4c2.4-1.8,2.9-5.2,5-7.3
	c2.4-2.4,6.4-2.7,9.6-2.6c0.9,0,1.7,0.2,2.4,0.7c0.8,0.7,0.9,1.9,1.8,2.5c0.6,0.4,1.4,0.5,2.1,0.2c1.9-0.6,3.3-2.4,5-3.4
	c3.6-2.1,5.6-0.1,7.7,2.6c1.7,2.1,3.5,4,5.4,5.9c2.3,2.3,4.8,3.6,5.3,7.1C571.3,394.8,571.6,399.6,570.2,403.6z"/>
<path class="st19" d="M547.6,406.6L547.6,406.6c0.2,0.1,0.4,0,0.4-0.1c0-0.1,0-0.1,0-0.2c0.5-0.2,1.1-0.3,1.7-0.4
	c1.5-0.3,2.9,0.5,3.5,1.9c0,0.1,0.1,0.2,0.2,0.2c0.1,0,0.2,0,0.3-0.1c0.1-0.1,0.1-0.2,0-0.3c-0.7-1.6-2.3-2.5-4-2.2
	c-2,0.3-2.2,0.5-2.2,0.8C547.3,406.4,547.4,406.6,547.6,406.6L547.6,406.6z"/>
<path class="st19" d="M550.2,410.7c0.2-0.6-0.1-1.3-0.7-1.5c-1-0.4-1.8,0.4-1.8,1.3c0,0.9,1.2,1.8,1.7,1.6
	C550,412,550.7,411.2,550.2,410.7z"/>
<path class="st17" d="M597.2,500.1c0,0,15.4-7.6,24.8-15.8c9.4-8.2,8.6-13.6,5.8-13L625,472c0,0,3.1-3,0.9-3.7
	c-2.2-0.8-3.2-0.5-3.2-0.5s2.5-3-0.3-3.6l-2.8-0.5c0,0,2-5.2-1.9-3.2c-3.9,2-21.1,15.8-23,13.5c-2-2.3-1.1-6.6,2.6-9.4
	c3.7-2.7,3.4-9.2-1.1-6.5c-4.5,2.7-8.2,5.9-9.4,10.7c-1.2,4.8-0.1,13.6-0.1,13.6l-26.7,17.7l8.6,19L597.2,500.1z"/>
<path class="st20" d="M512.6,456.6c7.3,4.3,7.1,18.6,7.5,26c1,19.2-4.5,37.7-8.9,56.2c-4.1,17.1-6.3,25.1-6.3,25.2
	c-2.1,6.8-58.5-5.7-73.6-2.2c-0.8,0.2-1.6-0.1-2.2-0.6c-0.6-0.6-0.9-1.4-0.8-2.2c2.7-18.7,12.3-80.8,23-96.7
	c12.6-18.7,47.7-24.2,47.7-24.2S502.3,450.5,512.6,456.6z"/>
<path class="st21" d="M496.3,451.1c0,0,19.8,71.5,26.2,72.3c6.5,0.8,48.8-33,51.3-33.7c2.5-0.7,26.3,27.5,19.8,29.3
	c-6.5,1.8-77.3,53.2-87.5,51c-10.1-2.2-33.2-72-35.5-83.5C468.4,474.9,487.1,433.5,496.3,451.1z"/>
<path class="st13" d="M263,396.1c0,0,0.3-23.7,26.9-14.8c18.6,6.2,22.1,21.4,44.1,73.1c22,51.6,69.6,29.6,69.6,29.6s16.5,9.7,0,23.5
	c-18.3,15.3-4.7,23.5-20.4,26.4c-15.7,2.9-25.7-4.8-25.7-4.8l-61-50.8"/>
<path class="st16" d="M290.6,417.4c0,0,2.6-7.1,4.5-2.8c1.9,4.2,1.8,8.1-0.1,8.4c-1.9,0.3-3.9-2.6-3.9-2.6L290.6,417.4z"/>
<path class="st16" d="M268.8,431.9l20.3,20.7l16.7,12.2l9.9-14.1l-9.8-11.1l-20.8-29.2L268.8,431.9L268.8,431.9z"/>
<path class="st17" d="M259.8,422.1c1,4,3.7,9,3.9,15.6c0.1,2.5-0.6,4.8,0.3,8.9c0.5,2,4.4,0,5.4,1.4c3.1,4.6,11.5,8.8,13.3,8.1
	c3.4-1.4,6-7.6,7.2-10.2c2.4-4.7,3.6-10,3.5-15.2c-0.1-5.8,0-11.9-1.8-17.2c-1.3-3.8-3.2-9.2-5.3-12.7c-2-3.3-8.4,2.2-12.4,1.4
	c-6.6-1.4-9.6,2-13.2,7.3C259,411.8,259,418.7,259.8,422.1z"/>
<path class="st18" d="M276.5,444c-1.3,0.7-2.8,1.1-4.2,1.1c-0.2,0-0.4-0.2-0.4-0.4s0.2-0.4,0.4-0.4c0,0,4.1-0.1,5.9-2.9
	c1.8-2.8,0.8-5,0.8-5c-0.1-0.1,0-0.3,0-0.4c0.1-0.1,0.2-0.2,0.3-0.2c0.1,0,0.2,0.1,0.3,0.2c0,0.1,1.2,2.6-0.9,5.7
	C278.3,442.8,277.5,443.5,276.5,444L276.5,444z"/>
<path class="st19" d="M268.9,422.6L268.9,422.6c-0.2,0.1-0.3,0-0.4,0c-0.1-0.1-0.1-0.2,0-0.3c-0.5-0.2-1.1-0.3-1.7-0.3
	c-1.5-0.2-2.9,0.6-3.4,2c0,0.1-0.1,0.1-0.1,0.1c-0.1,0-0.1,0-0.2,0c-0.1,0-0.2-0.2-0.2-0.3c0.6-1.6,2.2-2.6,4-2.4
	c2,0.2,2.2,0.5,2.2,0.7C269.2,422.4,269.1,422.5,268.9,422.6L268.9,422.6z"/>
<path class="st19" d="M266.4,426.8c-0.2-0.6,0.1-1.3,0.6-1.5c1-0.5,1.8,0.4,1.8,1.3c0,0.9-1.2,1.8-1.7,1.7S265.9,427.3,266.4,426.8z
	"/>
<g class="st22">
	<path class="st23" d="M280.1,433c2.6,0,4.8-2.1,4.8-4.8c0-2.6-2.1-4.8-4.8-4.8s-4.8,2.1-4.8,4.8C275.3,430.8,277.4,433,280.1,433z"
		/>
</g>
<path class="st24" d="M294.6,438.2c0.7,1.5,1.5,2.3,2.3,2.3c0.1,0,0.1,0,0.2,0c1.9-0.3,2.3-4.7,1.8-8.7c-0.2-1.9-0.7-3.8-1.5-5.6
	c-0.8-1.6-1.6-2.4-2.5-2.3c-1.9,0.3-2.3,4.7-1.8,8.7C293.4,434.5,293.8,436.4,294.6,438.2z M295.1,424.7L295.1,424.7
	c0.4,0,1,0.5,1.6,1.9c0.7,1.7,1.2,3.5,1.4,5.4c0.6,4.6-0.2,7.7-1.1,7.8c-0.3,0-1-0.4-1.6-1.9c-0.7-1.7-1.2-3.5-1.4-5.4
	C293.4,427.8,294.2,424.8,295.1,424.7z"/>
<path class="st25" d="M298.1,459.1c-7.1,4.6-10.1,25.9-10.2,33.2c-0.3,19.2,17.7,34.6,22.7,52.9c4.6,17,7.3,15.4,7.3,15.5
	c2.7,7.7,49.8-27.3,51.5-17.3c0,0-14.9-47-28.2-65.3c-13.3-18.3-29.3-32.7-29.3-32.7S308.1,452.6,298.1,459.1z"/>
<path class="st17" d="M203.8,465.3c0,0-8.7-12.7-15.3-12.1c-6,0.7-12,1.7-17.9,3.1c-5.1,1.1-14.9,5.1-4.2,5.4
	c4.5,0.1,9,0.1,13.6,0.1c0.5,4.5,2.6,8.6,5.2,12.3c5.1,7.1,2.8,3.1,11.8,6.9c9,3.8,19.6,8.7,19.6,8.7l2.5-8.8L203.8,465.3z"/>
<path class="st26" d="M298,465.8c-11,12.5-37.6,42.2-42.4,41.8c-6-0.5-38-31.6-40.2-32.8c-2.1-1.1-29,20-23.5,22.8
	c5.5,2.8,52.7,41,62.2,41c9.6-0.1,57.3-39.8,61.5-49.8c4.3-10-1.2-42.6-13-28.4C302.7,460.3,300.9,462.4,298,465.8"/>
<path class="st13" d="M252.3,415.2c0.1,1,0.4,1.9,0.9,2.8c0.7,1.1,1.9,1.7,3.2,1.5c2-0.3,3.5-2.4,5-3.9c2-2.1,4.1-4.2,6.3-5.8
	c5.4-3.9,10.5-1.9,15.8,3.5c1.5,1.6,3.1,3.3,4.9,4.1c0.4,0.2,0.8,0.2,1.2,0.1c0.6-0.4,0.6-1.5,0.8-2.4c0.5-2.2,2.6-2.9,3.4-5
	c0.7-1.9-0.2-4.9-1.9-5.8c-0.5-0.2-1-0.4-1.5-0.7c-2.2-1.5-2-5.4-2.5-7.9c-0.1-0.4-0.2-0.7-0.4-1c-0.5-0.8-1.4-0.7-2-0.2
	s-1,1.3-1.6,1.7c-1.5,0.9-3.5-0.7-5.2-0.5c-1.1,0.2-2,1.1-2.8,2c-1,1.1-2.3,0.8-3.6-0.1c-1-0.7-1.9-1.6-3-2.2
	c-0.9-0.5-1.8-0.6-2.8-0.5c-3.6,0.6-6.8,4.2-9.1,6.8C254,405.2,251.9,410.1,252.3,415.2z"/>
<path class="st13" d="M260.2,408.5c0,0,0,5.7,4.3,6.8c4.3,1.1,6.8-2.7,9.8-0.1c3.1,2.7,5.3,4.1,9.6,4.7c4.4,0.6,8.2-5.7,8.2-5.7
	l2.5-3.4v-2.6l-22.2-8L260.2,408.5z"/>
<path class="st13" d="M185.2,483.5c-0.8,0-1.5-0.2-2.1-0.7l-37-25.4c-1.1-0.8-1.7-2.1-1.6-3.4c0.1-1.4,0.9-2.5,2.2-3.1
	c1.2-0.6,2.7-0.5,3.8,0.3l37,25.4c1.4,0.9,2,2.7,1.5,4.3C188.4,482.5,186.9,483.6,185.2,483.5L185.2,483.5z"/>
<path class="st13" d="M122,679.7c0,0-29.8,22.3-34.5,19.6c-4.8-2.7-27.3-30.9-24.2-32.8c3.1-1.9,20.3,7.4,20.3,7.4l22.3-14.9
	L122,679.7z"/>
<path class="st13" d="M132.4,609.1c0,0-35.2,21.4-40.1,18.4c-4.9-3-26.1-32.8-22.6-34.6c3.6-1.8,21.3,8.5,21.3,8.5l26.2-14.1
	L132.4,609.1z"/>
<path class="st14" d="M364.2,534.6c0,0-33.4,26.2-41.9,21.2c-29.9-17.8-72.6-46.8-82.9-41.6c-13.3,6.7-138.2,77.3-138.2,77.3
	l10.7,37.5c0,0,124-84.7,132.5-79.8c8.5,4.9,81.1,52.3,102.5,46.3C393.2,582.5,369.1,537.6,364.2,534.6z"/>
<path class="st15" d="M361.3,537.6c0,0-29.5,34.7-39.9,32.2c-36.8-8.8-90.1-25-99.9-17.1C208.8,562.9,91.6,666.3,91.6,666.3l21,33.2
	c0,0,112.6-116.7,123.1-114.3c10.4,2.4,100.7,28,122.4,16.2C404.7,575.9,367.4,539.2,361.3,537.6z"/>
<path class="st13" d="M317.1,558.1c0,0-2.5,8.7,2.1,11.1c4.6,2.3,50.1-21.6,50.2-24.5c0.1-2.9-3.1-8-3.1-8s-31.3,17.8-37,19
	C323.5,556.8,317.1,558.1,317.1,558.1z"/>
<path class="st27" d="M323.7,567.9l-3.3,1.7c-1.9,1-4.5-0.8-5.7-4.1l-0.4-1c-1.2-3.3-0.5-6.8,1.4-7.8l3.3-1.7c2-1,4.5,0.8,5.7,4.1
	l0.4,1C326.3,563.3,325.7,566.9,323.7,567.9z"/>
<path class="st27" d="M354.1,518.4l-0.3-0.4c-0.1-0.1-0.1-0.2-0.1-0.2c-1.4-2.7-28.8-50.7-37.5-57.6c-3.9-3.1-8.9-4.4-13.4-3.6
	c-3.8,0.7-7,2.9-8.4,5.8c-1.1,2.3-1.1,4.9,0.2,7.1c0.1,0.3,0.1,0.6-0.1,0.8s-0.4,0.4-0.7,0.4c-0.3,0-0.6-0.2-0.7-0.5
	c-1.4-2.9-1.5-5.9-0.2-8.6c1.7-3.3,5.3-5.9,9.6-6.7c4.9-0.9,10.4,0.5,14.7,3.9c3.9,3.1,11.4,13.8,22.5,31.8
	c4.4,7.2,8.4,13.9,10.9,18.3c4.8,8.3,4.8,8.3,4.7,8.7l-0.1,0.5L354.1,518.4z"/>
<path class="st27" d="M332,530.3c-0.2,0-0.5-0.1-0.6-0.3c-0.2-0.2-15.4-18.2-23.4-31c-0.2-0.2-0.2-0.6-0.1-0.8
	c0.1-0.3,0.4-0.4,0.7-0.5c0.3,0,0.6,0.2,0.7,0.4c8,12.7,23.1,30.6,23.3,30.8c0.2,0.2,0.3,0.6,0.1,0.9
	C332.6,530.1,332.3,530.3,332,530.3L332,530.3z"/>
<path class="st27" d="M317.2,532.2c-1.7-2.9-0.7-6.5,2.2-8.2l39.9-23c2.9-1.7,6.5-0.7,8.2,2.2l12.5,21.7c1.7,2.9,0.7,6.5-2.2,8.2
	l-39.9,23c-2.9,1.7-6.5,0.7-8.2-2.2L317.2,532.2z"/>
<path class="st28" d="M605,440.7c-0.4,0-0.8-0.3-1-0.7c-0.1-0.3-3.2-8.1-0.1-12.8c1.4-2.2,3.8-3.4,7.1-3.5c11.9-0.6,13.6-1,17.2-6.7
	c1.4-2.3,3.8-3.9,6.5-4.2c4.6-0.5,10.2,2.2,15.3,7.3c0.3,0.3,0.4,0.7,0.3,1.1s-0.4,0.7-0.8,0.8c-0.4,0.1-0.8,0-1-0.3
	c-4.6-4.6-9.6-7.1-13.5-6.7c-2.1,0.2-3.9,1.4-4.9,3.2c-4.2,6.7-7.2,7.1-18.9,7.7c-2.6,0.1-4.3,0.9-5.3,2.5
	c-2.5,3.8,0.3,10.8,0.3,10.9c0.2,0.6-0.1,1.2-0.6,1.4C605.2,440.7,605.1,440.7,605,440.7z"/>
<path class="st28" d="M595.8,424.2c-0.6,0-1-0.4-1.1-1c0-0.3-0.5-6.7,7.2-12.2c7.8-5.6,17.6-0.3,18-0.1c0.5,0.3,0.7,1,0.4,1.5
	c-0.3,0.5-1,0.7-1.5,0.4l0,0c-0.1,0-9-4.9-15.7-0.1c-6.7,4.8-6.4,10.2-6.4,10.3c0,0.3-0.1,0.6-0.2,0.8
	C596.5,424.1,596.2,424.2,595.8,424.2L595.8,424.2z"/>
<path class="st28" d="M589.8,418.2c-0.3,0-0.7-0.2-0.9-0.4c-0.1-0.2-3.1-4.1-0.4-10.9c2.7-6.8,11.1-7.5,11.5-7.5
	c0.6,0,1.1,0.4,1.2,1c0,0.6-0.4,1.1-1,1.2c-0.1,0-7.4,0.6-9.6,6.1c-2.2,5.6,0.1,8.7,0.1,8.7c0.2,0.2,0.3,0.5,0.2,0.8
	c0,0.3-0.2,0.5-0.4,0.7C590.3,418.1,590.1,418.2,589.8,418.2z"/>
<path class="st1" d="M205.4,787.1c11.3,3.6,23.5,5.4,36.7,5.4c12.7,0,26.4-1.7,41.3-5l2.7-0.6l0.2,0c7.2-1.6,15-3.4,22.8-5.6
	c2.6,1.1,5.2,2.1,7.5,2.8c12.7,4.3,27.6,6.2,45.5,5.9c21.9-0.3,45.6-4.9,72.5-13.9c33.8-11.3,67.9-27.2,104.3-48.3
	c26.4-15.4,52.1-33.1,76.9-50.3c4.9-3.4,9.7-6.7,14.6-10.1c0.3-0.2,0.6-0.6,0.5-1c0-0.4-0.3-0.8-0.6-0.9c-0.4-0.2-0.8-0.1-1.1,0.1
	c-4.9,3.3-9.7,6.7-14.6,10.1c-24.8,17.1-50.4,34.8-76.7,50.2c-36.2,21.1-70.2,36.9-103.8,48.1c-26.7,8.9-50.2,13.4-71.8,13.8
	c-17.6,0.3-32.3-1.6-44.8-5.8c-1.5-0.5-3.1-1.1-4.8-1.7c13.7-4.2,27.2-9.9,37.1-19c3.8-3.4,5.8-7.3,5.9-11.3c0.1-3.8-1.6-7.6-5-11
	c-9-9-28.3-8.8-41.8-3.9c-12.7,4.5-20.5,12.6-21.5,22.1c-1,10.5,8.9,17.9,18.9,22.7c-7,1.9-13.9,3.5-20.4,4.9l-2.7,0.6
	c-29.8,6.8-54.9,6.7-76.8-0.3c-19-6.1-34.8-17.8-45.8-34.1c-17.3-25.7-24.1-62.7,0-87.4c21.5-22.1,54.5-27.3,72.3-28.5
	c5-0.3,10-0.4,14.9-0.2c0.4,0,0.8-0.2,1-0.5c0.2-0.3,0.2-0.7,0-1.1c-0.2-0.3-0.5-0.6-0.9-0.6c-5.1-0.2-10.1-0.1-15.2,0.2
	c-18.1,1.2-51.7,6.5-73.7,29.1c-24.9,25.6-18.1,63.7-0.3,90.1C169.7,768.8,185.9,780.9,205.4,787.1z M309.3,737
	c5.9-2.1,12.2-3.2,18.4-3.2v0c8.9,0,16.8,2.3,21.1,6.6c2.9,2.9,4.4,6.2,4.3,9.4c-0.1,3.4-1.9,6.8-5.2,9.8
	c-10.3,9.4-24.5,15.1-38.9,19.3c-10-4.4-20.9-11.5-19.9-21.6C290.1,748.7,297.4,741.3,309.3,737z"/>
</svg>
