<svg width="28" height="29" viewBox="0 0 28 29" fill="none" xmlns="http://www.w3.org/2000/svg">
<path d="M12.9282 21.4719C13.4766 21.9112 14.2563 21.9109 14.8044 21.4713L24.8246 13.4347L25.7997 12.6568C26.5514 12.0571 26.5526 10.9149 25.8022 10.3136L14.8045 1.50154C14.2563 1.06232 13.4768 1.06232 12.9286 1.50154L1.92643 10.3172C1.17744 10.9173 1.17695 12.0568 1.92543 12.6576L2.89364 13.4347L12.9282 21.4719Z" fill="#B5B5C3"/>
<path opacity="0.3" fill-rule="evenodd" clip-rule="evenodd" d="M14.7891 25.3681C14.241 25.8072 13.4616 25.8073 12.9134 25.3683L3.95756 18.195C3.3651 17.7205 2.49845 17.825 2.03585 18.4269V18.4269C1.58009 19.0198 1.69076 19.8698 2.28313 20.3263L12.9484 28.5447C13.4879 28.9604 14.2398 28.9605 14.7794 28.5448L25.4399 20.3332C26.0373 19.8731 26.1486 19.0158 25.6885 18.4183V18.4183C25.2221 17.8126 24.3493 17.7078 23.7528 18.1858L14.7891 25.3681Z" fill="#8E9094"/>
</svg>
