<svg width="25" height="25" viewBox="0 0 25 25" fill="none" xmlns="http://www.w3.org/2000/svg">
<g clip-path="url(#clip0_656:159)">
<path d="M24.3021 1.74423L14.4184 4.74514e-05C13.9532 -0.0580921 13.4881 0.232606 13.43 0.697722C13.43 0.755861 13.43 0.814001 13.43 0.814001V1.80237L7.84859 3.13958C7.44161 3.25586 7.20905 3.6047 7.20905 4.01168V6.3954C7.20905 6.86051 7.61603 7.26749 8.08115 7.26749C8.54626 7.26749 8.95324 6.86051 8.95324 6.3954V4.70935L13.3718 3.66284V21.4535L8.83696 20.3489V18.8954C8.83696 18.4303 8.42998 18.0233 7.96487 18.0233C7.49975 18.0233 7.09277 18.4303 7.09277 18.8954V21.0466C7.09277 21.4535 7.38347 21.8024 7.73231 21.9187L13.3718 23.2559V24.128C13.3718 24.5931 13.7788 25 14.2439 25C14.3021 25 14.3021 25 14.3602 25L24.2439 23.2559C24.6509 23.1977 24.9416 22.7907 24.9416 22.3838V2.61633C24.9998 2.20935 24.7091 1.80237 24.3021 1.74423Z" fill="#B5B5C3"/>
<path d="M10.8137 12.5C10.8137 12.0349 10.4067 11.6279 9.94163 11.6279H5.23233V9.01165C5.23233 8.54653 4.82535 8.13955 4.3021 8.19769C4.06954 8.19769 3.89512 8.31397 3.7207 8.43025L0.232331 11.9186C-0.116506 12.2675 -0.116506 12.7907 0.232331 13.1396L3.7207 16.6279C4.06954 16.9768 4.5928 16.9768 4.94163 16.6279C5.11605 16.4535 5.23233 16.221 5.23233 15.9884V13.3721H9.94163C10.4067 13.3721 10.8137 12.9651 10.8137 12.5Z" fill="#DFE1E7"/>
</g>
<defs>
<clipPath id="clip0_656:159">
<rect width="25" height="25" fill="white"/>
</clipPath>
</defs>
</svg>
