<svg width="19" height="23" viewBox="0 0 19 23" fill="none" xmlns="http://www.w3.org/2000/svg">
<g clip-path="url(#clip0_656:135)">
<path d="M18.9765 1H7.58497C7.63304 1.1425 7.6811 1.3325 7.6811 1.475V6.1775C7.6811 6.985 7.05625 7.6025 6.23914 7.6025H1.48065C1.33646 7.6025 1.1442 7.555 1 7.5075V23.325C1 23.61 1.19226 23.8 1.48065 23.8H18.9765C19.2649 23.8 19.4571 23.61 19.4571 23.325V1.475C19.4571 1.2375 19.2168 1 18.9765 1ZM6.91206 19.1925C6.91206 19.4775 6.67173 19.6675 6.4314 19.6675H3.7878C3.49941 19.6675 3.30714 19.4775 3.30714 19.1925V8.6C3.30714 8.3625 3.49941 8.125 3.7878 8.125H6.47947C6.71979 8.125 6.96012 8.3625 6.96012 8.6V19.1925H6.91206ZM12.0551 19.1925C12.0551 19.4775 11.8147 19.6675 11.5744 19.6675H8.88274C8.59435 19.6675 8.40209 19.4775 8.40209 19.1925V10.88C8.40209 10.6425 8.59435 10.405 8.88274 10.405H11.5744C11.8147 10.405 12.0551 10.6425 12.0551 10.88V19.1925ZM17.15 19.1925C17.15 19.4775 16.9577 19.6675 16.6693 19.6675H13.9777C13.6893 19.6675 13.497 19.4775 13.497 19.1925V12.5425C13.497 12.305 13.6893 12.0675 13.9777 12.0675H16.6693C16.9577 12.0675 17.15 12.305 17.15 12.5425V19.1925Z" fill="#B5B5C3"/>
<path d="M1.48016 6.65198H6.23865C6.52704 6.65198 6.7193 6.41448 6.7193 6.17698V1.47448C6.7193 1.28448 6.62317 1.09448 6.43091 1.04698C6.23865 0.951983 6.04638 0.999483 5.90219 1.14198L1.1437 5.84448C0.999506 5.98698 0.951441 6.17698 1.04757 6.36698C1.09564 6.55698 1.2879 6.65198 1.48016 6.65198Z" fill="#B5B5C3"/>
</g>
<defs>
<clipPath id="clip0_656:135">
<rect width="18.4571" height="22.8" fill="white"/>
</clipPath>
</defs>
</svg>
