<svg width="21" height="22" viewBox="0 0 21 22" fill="none" xmlns="http://www.w3.org/2000/svg">
<path d="M1.02085 10.3013L2.50162 9.6622C2.57213 9.11776 2.71316 8.59699 2.90119 8.07622L1.8435 6.91634C2.26658 5.92215 2.87769 4.9753 3.62983 4.14681L5.15761 4.59656L6.33282 3.67338L6.26231 2.06374C7.22599 1.54297 8.28368 1.1879 9.36488 0.998535L10.2345 2.30045C10.7751 2.25311 11.3157 2.25311 11.8563 2.30045L12.8435 1.02221C13.8777 1.21158 14.8884 1.56664 15.8286 2.08741L15.6405 3.62604C16.1811 3.98111 16.6982 4.40719 17.1683 4.88061L18.7431 4.54922C18.7901 4.62023 18.8371 4.66757 18.8841 4.73859C19.4717 5.49606 19.9418 6.30088 20.2709 7.12938L19.1662 8.19458C19.4247 8.97573 19.5657 9.75688 19.5893 10.5617L20.9995 11.2955C20.976 12.2424 20.788 13.1892 20.5059 14.1124L18.9781 14.2071C18.6491 15.0356 18.179 15.8167 17.5914 16.5032L18.179 17.9471C17.8499 18.2785 17.5209 18.5862 17.1448 18.8703C16.7687 19.1543 16.3927 19.4147 15.9931 19.6514L14.7474 18.7283C13.9247 19.1307 13.0786 19.3911 12.2089 19.5094L11.7623 20.977C10.8221 21.048 9.85847 20.977 8.9418 20.7877L8.56573 19.249C7.81359 19.0123 7.06145 18.6809 6.37983 18.2548L5.08709 19.0833C4.35846 18.5389 3.70034 17.8998 3.11273 17.1423C3.06572 17.0713 3.01871 17.0239 2.97171 16.9529L3.70034 15.509C3.34777 14.9409 3.06572 14.3254 2.85419 13.71L1.3264 13.5206C1.04435 12.4317 0.950335 11.3665 1.02085 10.3013ZM6.28581 14.6568C8.30718 17.2843 12.0914 17.7341 14.7004 15.6984C17.3093 13.6626 17.7794 9.85156 15.7345 7.22406C13.6897 4.59656 9.92898 4.12313 7.32 6.18253C4.71102 8.21825 4.24094 12.0293 6.28581 14.6568Z" fill="#B5B5C3"/>
<path d="M11.0099 15.2722C8.67335 15.2722 6.77917 13.3646 6.77917 11.0114C6.77917 8.65824 8.67335 6.75061 11.0099 6.75061C13.3465 6.75061 15.2407 8.65824 15.2407 11.0114C15.2407 13.3646 13.3465 15.2722 11.0099 15.2722Z" fill="#DFE1E7"/>
</svg>
